<svg width="380" height="265" viewBox="0 0 380 265" fill="none" xmlns="http://www.w3.org/2000/svg">
<path d="M179.037 207.871V175.826H183.409V187.031C184.597 186.564 185.786 186.225 187.441 186.225C192.619 186.225 196.778 190.045 196.778 197.175C196.778 204.857 191.813 209.356 185.234 209.356C182.73 209.356 180.565 208.805 179.037 207.871ZM192.279 197.472C192.279 193.27 190.285 190.342 186.762 190.342C185.022 190.342 184.045 190.894 183.409 191.191V204.857C184.258 205.197 185.149 205.324 185.87 205.324C189.733 205.324 192.237 202.183 192.237 197.472H192.279Z" fill="white"/>
<path d="M210.359 209.908C207.473 218.779 204.247 219.967 200.767 219.967C199.154 219.967 197.838 219.627 196.607 219.033L197.711 215.171C198.602 215.638 199.536 215.977 200.597 215.977C202.931 215.977 204.841 214.195 206.412 208.889L197.499 186.861H202.21L208.407 203.202H208.492L213.415 186.861H217.956L210.401 209.993L210.359 209.908Z" fill="white"/>
<path d="M230.055 178.117H236.973C239.647 178.117 241.557 178.626 243 179.518C245.716 181.046 246.82 183.762 246.82 186.776C246.82 190.935 244.655 193.651 241.345 194.797V194.882C242.193 195.392 243.297 197.089 244.74 199.848L249.494 208.888H244.4L240.156 200.739C238.798 198.065 237.822 196.75 237.058 196.58H234.469V208.888H230.055V178.117ZM236.803 192.505C238.204 192.505 239.18 192.208 240.114 191.657C241.387 190.808 242.236 189.322 242.236 187.285C242.236 185.545 241.642 184.059 240.411 183.21C239.647 182.574 238.543 182.149 236.846 182.149H234.469V192.505H236.803Z" fill="white"/>
<path d="M253.736 178.117H268.422L267.148 182.277H258.15V191.147H267.106V195.307H258.15V204.729H268.549V208.888H253.736V178.117Z" fill="white"/>
<path d="M273.939 178.117H278.354V204.729H288.328V208.888H273.939V178.117Z" fill="white"/>
<path d="M290.918 193.609C290.918 184.272 296.69 177.82 304.754 177.82C312.819 177.82 318.549 184.357 318.549 193.609C318.549 202.862 312.649 209.356 304.754 209.356C296.86 209.356 290.918 203.116 290.918 193.609ZM313.88 193.609C313.88 186.649 310.442 181.98 304.754 181.98C299.067 181.98 295.629 186.394 295.629 193.609C295.629 200.825 299.279 205.196 304.754 205.196C310.23 205.196 313.88 200.825 313.88 193.609Z" fill="white"/>
<path d="M324.49 203.201C323.854 201.673 323.557 199.763 323.557 197.599V178.117H327.971V197.217C327.971 198.787 328.183 200.23 328.65 201.376C329.626 203.838 331.621 205.196 334.677 205.196C337.733 205.196 339.685 203.838 340.661 201.376C341.171 200.273 341.383 198.829 341.383 197.132V178.117H345.797V197.599C345.797 199.806 345.457 201.716 344.821 203.286C343.208 207.318 339.685 209.355 334.677 209.355C329.668 209.355 326.061 207.318 324.49 203.201Z" fill="white"/>
<path d="M351.951 178.117H356.365V208.888H351.951V178.117Z" fill="white"/>
<path d="M363.283 203.032C364.811 204.135 366.891 205.196 369.437 205.196C371.984 205.196 374.403 204.135 374.403 201.122C374.403 194.628 362.349 195.434 362.349 186.139C362.349 181.598 365.533 177.82 371.093 177.82C373.809 177.82 376.186 178.542 377.629 179.348V183.805C375.549 182.616 373.427 181.98 371.22 181.98C369.013 181.98 367.061 182.914 367.061 185.672C367.061 191.742 379.072 191.063 379.072 200.697C379.072 206.045 375.082 209.356 369.522 209.356C366.339 209.356 363.453 208.337 361.543 206.767L363.326 203.032H363.283Z" fill="white"/>
<path d="M201.033 3.99518C163.793 3.99518 133.529 34.4691 133.529 71.8709C133.529 109.273 163.793 139.747 201.033 139.747C238.272 139.747 268.537 109.273 268.537 71.8709C268.537 34.4691 238.23 3.99518 201.033 3.99518ZM201.033 120.451C174.403 120.451 152.719 98.6472 152.719 71.8709C152.719 45.0946 174.403 23.2911 201.033 23.2911C227.662 23.2911 249.346 45.0946 249.346 71.8709C249.346 98.6472 227.662 120.451 201.033 120.451ZM119.791 152.795H139.024V197.082C139.024 234.526 108.759 264.957 71.5196 264.957C34.2804 264.957 4.01558 234.484 4.01558 197.082V129.206H23.2481V197.082C23.2481 223.858 44.9322 245.662 71.5619 245.662C98.1915 245.662 119.876 223.858 119.876 197.082V152.795H119.791ZM61.8822 75.8661L0 13.6431L13.5684 0L71.4773 58.2278L129.386 0L142.955 13.6431L81.0724 75.8661V139.747H61.8399V75.8661H61.8822ZM139.066 139.789H119.749V120.366H139.066V139.789ZM148.746 265H129.428V245.577H148.746V265ZM280.795 139.789H261.478V120.366H280.795V139.789Z" fill="white"/>
</svg>
